<svg id="Capa_1" data-name="Capa 1" xmlns="http://www.w3.org/2000/svg" viewBox="0 0 277.78 196.73"><path d="M105,159.52a71.76,71.76,0,0,1,9.54,2.56,17,17,0,0,1,6.35,4,14.86,14.86,0,0,1,3.44,7.06q1,4.55,1,14.49V300.1l39-20.82V259.36c0-2.19,2.55-4,5.71-4h37.21c.58,0,1.14,0,1.69,0l47.48-25.38v-7.59c0-2.18-2.56-4-5.71-4h-9.29c-2.67,0-5,1.28-5.57,3.07a48.75,48.75,0,0,1-5.58,12.06,19.11,19.11,0,0,1-8.65,7q-5.21,2.1-14.37,2.09H170c-3.16,0-5.71-1.77-5.71-3.95v-70.5c0-2.18,2.55-4,5.71-4h55.33a84.4,84.4,0,0,1,16.46,1.29,30.39,30.39,0,0,1,10.94,4.47,36,36,0,0,1,9,9.23,96.62,96.62,0,0,1,7.57,13.17c.79,1.6,3,2.68,5.41,2.68h10.59c3.15,0,5.71-1.77,5.71-3.95V155.59c0-2.19-2.56-4-5.71-4H106.66c-3.16,0-5.71,1.77-5.71,4v.16C101,157.47,102.57,159,105,159.52Z" transform="translate(-100.95 -151.63)"/><path d="M179.05,342.83v-4.48a21,21,0,0,1-8.51-4.4,16.92,16.92,0,0,1-4.8-8.21,53,53,0,0,1-1.45-13.84V297.65l-39.11,20.9a50.29,50.29,0,0,1-1.21,9.64,13.12,13.12,0,0,1-5.73,8q-3.64,2.34-13.23,4.33c-2.4.5-4.06,2-4.06,3.74v.15c0,2.19,2.55,3.95,5.71,3.95H187C182.63,348.36,179.05,345.89,179.05,342.83Z" transform="translate(-100.95 -151.63)"/><path d="M229,263.07c.4.47.78,1,1.16,1.49a48.65,48.65,0,0,1,5.65,11.73c.62,1.78,2.91,3,5.55,3h9.34c3.15,0,5.71-1.77,5.71-3.95v-27Z" transform="translate(-100.95 -151.63)"/><path d="M315.39,216.67v87.06c0,1.87-1.4,16.12-22.27,26.9a49.16,49.16,0,0,1-22.3,5.05H254.34a84.54,84.54,0,0,1-16.46-1.29,30.47,30.47,0,0,1-10.94-4.47,36.14,36.14,0,0,1-9-9.23,97.68,97.68,0,0,1-7.57-13.17c-.78-1.6-3-2.68-5.4-2.68H194.42c-3.15,0-5.71,1.77-5.71,4v35.62c0,2.19,2.56,4,5.71,4H304.29c21.89,0,41.3-10,47.34-24.51a32.35,32.35,0,0,0,2.72-11.53V195.85Z" transform="translate(-100.95 -151.63)"/><path d="M373,151.63H291.93a6,6,0,0,0-.73.06c4.21.25,7.52,2.67,7.52,5.65v3.8c.49.12,1,.24,1.46.37a21.32,21.32,0,0,1,9,4.54,16.94,16.94,0,0,1,4.79,8.21,53,53,0,0,1,1.46,13.84v10.21l39.41-21.07a37.64,37.64,0,0,1,.91-5.43,13.08,13.08,0,0,1,5.73-8q3.65-2.34,13.22-4.33c2.4-.5,4.07-2,4.07-3.74v-.15C378.73,153.4,376.17,151.63,373,151.63Z" transform="translate(-100.95 -151.63)"/></svg>